<?xml version="1.0" encoding="UTF-8" standalone="no"?>
<!DOCTYPE svg PUBLIC "-//W3C//DTD SVG 1.1//EN" "http://www.w3.org/Graphics/SVG/1.1/DTD/svg11.dtd">
<svg width="100%" height="100%" viewBox="0 0 64 64" version="1.1" xmlns="http://www.w3.org/2000/svg" xmlns:xlink="http://www.w3.org/1999/xlink" xml:space="preserve" xmlns:serif="http://www.serif.com/" style="fill-rule:evenodd;clip-rule:evenodd;stroke-linejoin:round;stroke-miterlimit:2;">
    <g transform="matrix(1,0,0,1,-128,0)">
        <g id="Artboard1" transform="matrix(1,0,0,1,128,0)">
            <rect x="0" y="0" width="64" height="64" style="fill:none;"/>
            <g transform="matrix(2.40581,0.339449,-0.339449,2.40581,-27.7166,-41.6537)">
                <path d="M22.749,31.886L27.875,27.798L27.875,34.354C27.875,34.829 27.768,35.297 27.562,35.724C26.806,37.294 24.918,37.955 23.348,37.199C21.778,36.443 21.117,34.554 21.873,32.984C22.079,32.557 22.378,32.181 22.749,31.886ZM29.125,27.798L34.251,31.886C34.622,32.181 34.921,32.557 35.127,32.984C35.883,34.554 35.222,36.443 33.652,37.199C32.082,37.955 30.194,37.294 29.438,35.724C29.232,35.297 29.125,34.829 29.125,34.354L29.125,27.798ZM20.704,25.362L27.096,26.821L21.97,30.908C21.599,31.204 21.166,31.413 20.704,31.518C19.005,31.906 17.311,30.841 16.923,29.142C16.535,27.444 17.599,25.749 19.298,25.362C19.761,25.256 20.241,25.256 20.704,25.362ZM35.03,30.908L29.904,26.821L36.296,25.362L36.383,25.343C36.819,25.256 37.268,25.263 37.702,25.362C39.401,25.749 40.465,27.444 40.077,29.142C39.689,30.841 37.995,31.906 36.296,31.518C35.834,31.413 35.401,31.204 35.03,30.908ZM36.018,24.143L29.626,25.602L32.471,19.695L32.511,19.615C32.714,19.221 32.999,18.873 33.347,18.596C34.71,17.51 36.698,17.734 37.784,19.096C38.871,20.458 38.647,22.447 37.284,23.533C36.913,23.829 36.481,24.037 36.018,24.143ZM27.374,25.602L20.982,24.143C20.519,24.037 20.087,23.829 19.716,23.533C18.353,22.447 18.129,20.458 19.216,19.096C20.302,17.734 22.29,17.51 23.653,18.596C24.024,18.892 24.323,19.267 24.529,19.695L27.374,25.602ZM31.345,19.152L28.5,25.06L25.655,19.152C25.449,18.725 25.343,18.257 25.343,17.782C25.343,16.04 26.757,14.625 28.5,14.625C30.243,14.625 31.657,16.04 31.657,17.782C31.657,18.257 31.551,18.725 31.345,19.152Z" style="fill:rgb(114,135,253);"/>
            </g>
        </g>
    </g>
</svg>
